<?xml version="1.0" encoding="UTF-8"?>
<svg xmlns="http://www.w3.org/2000/svg" viewBox="0 0 934 934">
  <defs>
    <style>
      .cls-1, .cls-2, .cls-3, .cls-4 {
        fill: none;
      }

      .cls-5 {
        fill: #fbd183;
      }

      .cls-6 {
        fill: #eb5f31;
      }

      .cls-7 {
        fill: #fff266;
      }

      .cls-2 {
        stroke: #2f3b46;
        stroke-width: 22.92px;
      }

      .cls-2, .cls-3, .cls-4 {
        stroke-linecap: round;
        stroke-linejoin: round;
      }

      .cls-8 {
        fill: #f2e12c;
      }

      .cls-9 {
        fill: #2979ce;
      }

      .cls-10 {
        fill: #78d2f9;
      }

      .cls-11 {
        fill: #54b4e9;
      }

      .cls-12 {
        fill: #2f3b46;
      }

      .cls-13 {
        fill: #d3d3d3;
        stroke-width: 16.19px;
      }

      .cls-13, .cls-3 {
        stroke: #2f3b46;
      }

      .cls-3 {
        stroke-width: 14.32px;
      }

      .cls-14 {
        fill: #f79457;
      }

      .cls-4 {
        stroke: #d3d3d3;
        stroke-width: 35px;
      }
    </style>
  </defs>
  <g id="BIG_ARROW" data-name="BIG ARROW">
    <g id="Arrow_6" data-name="Arrow 6">
      <path class="cls-13" d="M593.94,809.07l-32.77.94c-5.86.18-10.73-3.49-10.88-8.2l-34.49-130.31c-.14-4.71-5.01-8.38-10.88-8.2l-52.53,1.97c-5.86.18-10.5,4.14-10.36,8.85l-23.42,129.15c.14,4.71-4.49,8.67-10.36,8.85l-33.65.96c-9.4.29-13.89,9.51-7.16,14.71l111.32,86.07c4.2,3.25,10.92,3.11,15.02-.31l108.03-90.07c6.65-5.55,1.66-14.69-7.86-14.4Z"/>
      <line class="cls-4" x1="476.54" y1="508.24" x2="476.54" y2="616.87"/>
    </g>
  </g>
  <g id="Layer_2" data-name="Layer 2">
    <g>
      <polygon class="cls-8" points="215.65 798.72 402.94 673.27 215.65 410.59 215.65 798.72"/>
      <polygon class="cls-7" points="215.65 798.72 28.36 673.27 215.65 410.59 215.65 798.72"/>
      <path class="cls-2" d="M198.51,418.38L29.11,658.7c-6.82,9.67-4.28,23.07,5.6,29.59l169.4,111.68c7,4.62,16.08,4.62,23.08,0l169.4-111.68c9.88-6.51,12.42-19.91,5.6-29.59l-169.4-240.32c-8.35-11.85-25.92-11.85-34.28,0Z"/>
      <line class="cls-3" x1="215.22" y1="462.43" x2="215.22" y2="754.25"/>
    </g>
    <g>
      <path class="cls-14" d="M584.44,688.39c-76.07-147.69,87.73-309.57,233.18-218.42,60.32,74.33,69.63,184.28-49.68,260.37-66.1,42.16-188.08-52.18-183.5-41.95Z"/>
      <path class="cls-6" d="M817.62,469.97c157.36,98.61,67.57,338.86-115.14,309.21-48.83-7.92-97.91-45.85-118.04-90.79-4.58-10.23-16.93-25.24-14.12-36.03,37.96,67.88,132.93,88.2,199.06,46.09,76.64-48.79,108.55-154.15,48.23-228.48Z"/>
      <path class="cls-12" d="M925.61,612.67c0,106.54-86.37,192.91-192.91,192.91s-192.91-86.37-192.91-192.91,86.37-192.91,192.91-192.91,192.91,86.37,192.91,192.91ZM584.44,688.39c20.13,44.94,69.21,82.87,118.04,90.79,182.71,29.65,272.5-210.6,115.14-309.21-145.44-91.15-309.25,70.73-233.18,218.42Z"/>
      <path class="cls-5" d="M622.66,582.6c-38.8-37.54,69.4-139.07,105.76-95.1,32.72,39.57-69.75,129.95-105.76,95.1Z"/>
    </g>
    <g>
      <path class="cls-11" d="M293.14,146.13s170.78,85.12,170.78,94.54l-.87,204.76-171.21-94.1c-1.56-1.44,1.31-205.19,1.31-205.19Z"/>
      <polygon class="cls-9" points="655.04 144.88 654.46 353.42 485.94 448.1 485.94 240.05 655.04 144.88"/>
      <polygon class="cls-10" points="473.94 34.16 301.42 125.65 473.94 222.26 646.45 125.65 473.94 34.16"/>
      <polygon class="cls-1" points="310.31 127.74 473.94 219.9 473.94 219.48 310.31 127.74"/>
      <polygon class="cls-1" points="473.06 37.65 473.94 38.12 473.94 37 310.31 127.74 473.06 37.65"/>
      <polygon class="cls-1" points="473.94 38.12 473.06 37.65 310.31 127.74 473.94 219.48 473.94 38.12"/>
      <polygon class="cls-1" points="294.12 147.87 294.88 350.45 461.74 443.68 461.67 244.09 294.12 147.87"/>
      <path class="cls-12" d="M662.53,112.29c-46.82-24.87-148.79-80.47-179.6-97.29-5.61-3.06-12.37-3.06-17.98,0-30.81,16.81-132.79,72.42-179.6,97.29-9.33,4.96-15.14,14.67-15.08,25.23.19,38.81.22,164.24.23,210.21,0,10.56,5.72,20.28,14.94,25.41l173.49,96.19c9.34,5.18,20.7,5.18,30.04,0l173.49-96.19c9.22-5.14,14.94-14.86,14.94-25.41,0-45.97.04-171.4.23-210.21.05-10.56-5.75-20.28-15.09-25.23ZM294.88,350.45l-.76-202.58,167.55,96.22.07,199.59-166.85-93.23ZM310.31,127.74l163.62-90.74,163.62,90.74-163.62,92.16-163.62-92.16ZM652.99,350.45l-166.85,93.23.07-199.59,167.55-96.22-.76,202.58Z"/>
      <path class="cls-12" d="M473.94,219.9s.13-.07.38-.2l-.38-.21v.41Z"/>
    </g>
  </g>
</svg>